<?xml version="1.0" encoding="UTF-8"?>
<!DOCTYPE svg PUBLIC "-//W3C//DTD SVG 1.1//EN" "http://www.w3.org/Graphics/SVG/1.1/DTD/svg11.dtd">
<!-- Creator: CorelDRAW X7 -->
<svg xmlns="http://www.w3.org/2000/svg" xml:space="preserve" width="500px" height="500px" version="1.1" style="shape-rendering:geometricPrecision; text-rendering:geometricPrecision; image-rendering:optimizeQuality; fill-rule:evenodd; clip-rule:evenodd"
viewBox="0 0 500 500"
 xmlns:xlink="http://www.w3.org/1999/xlink">
 <defs>
  <style type="text/css">
   <![CDATA[
    .str2 {stroke:white;stroke-width:7.99975;stroke-linejoin:round}
    .str0 {stroke:#472C2C;stroke-width:24.9997;stroke-linecap:round;stroke-linejoin:round}
    .str1 {stroke:white;stroke-width:7.99975;stroke-linecap:round;stroke-linejoin:round}
    .fil1 {fill:none}
    .fil2 {fill:#472C2C}
    .fil0 {fill:url(#id0)}
   ]]>
  </style>
  <linearGradient id="id0" gradientUnits="userSpaceOnUse" x1="250" y1="-0.863245" x2="250" y2="499.952">
   <stop offset="0" style="stop-opacity:1; stop-color:#B51F1B"/>
   <stop offset="1" style="stop-opacity:1; stop-color:#D52B1E"/>
  </linearGradient>
 </defs>
 <g id="Слой_x0020_1">
  <metadata id="CorelCorpID_0Corel-Layer"/>
  <polygon class="fil0" points="0,-1 500,-1 500,500 0,500 "/>
  <path class="fil1 str0" d="M277 252c16,0 34,1 52,1 13,-19 26,-39 40,-59 -13,-19 -27,-38 -39,-55 -19,3 -36,5 -52,8 -11,19 -21,37 -31,54 10,16 20,33 30,51zm-125 -4c10,0 21,1 32,1 7,-15 15,-30 23,-45 -8,-15 -16,-29 -23,-43 -11,2 -21,3 -32,5 -6,14 -12,28 -19,42 6,13 13,26 19,40zm55 -44c13,-1 26,-2 40,-3 10,-17 20,-35 31,-54 -11,-16 -21,-31 -30,-45 -14,3 -28,6 -40,9 -8,17 -16,34 -24,50 7,14 15,28 23,43zm0 92c12,1 26,3 40,5 9,-16 19,-32 30,-49 -10,-18 -20,-35 -30,-51 -14,1 -27,2 -40,3 -8,15 -16,30 -23,45 7,15 15,31 23,47zm-1 92c13,4 26,8 40,12 10,-14 20,-29 30,-44 -10,-19 -20,-37 -29,-55 -14,-2 -28,-4 -40,-5 -8,14 -16,28 -24,41 8,16 15,33 23,51zm70 -32c17,4 34,7 52,11 13,-17 27,-34 41,-52 -14,-21 -27,-42 -40,-62 -18,0 -36,-1 -52,-1 -11,17 -21,33 -30,49 9,18 19,36 29,55zm-124 -26c10,3 20,5 31,7 8,-13 16,-27 24,-41 -8,-16 -16,-32 -23,-47 -11,0 -22,-1 -32,-1 -6,14 -13,27 -19,39 6,14 12,29 19,43z"/>
  <path class="fil1 str1" d="M278 252c16,0 34,1 52,1 13,-19 27,-39 41,-59 -14,-19 -27,-38 -40,-55 -19,3 -36,5 -52,8 -11,19 -21,37 -31,54 10,16 20,33 30,51zm-125 -4c10,1 20,1 31,1 8,-15 16,-30 24,-45 -8,-15 -16,-29 -23,-43 -11,2 -22,3 -32,5 -7,14 -13,28 -19,42 6,13 12,26 19,40zm55 -44c13,-1 26,-2 40,-3 10,-17 20,-35 31,-54 -11,-16 -21,-31 -31,-46 -14,4 -27,7 -40,10 -8,17 -16,34 -23,50 7,14 15,28 23,43zm0 92c12,1 25,3 39,5 10,-16 20,-32 31,-49 -10,-18 -20,-35 -30,-51 -14,1 -27,2 -40,3 -8,15 -16,30 -24,45 8,15 16,31 24,47zm-1 92c13,4 26,8 40,12 10,-14 20,-28 30,-43 -10,-20 -20,-38 -30,-56 -14,-2 -27,-4 -39,-5 -9,14 -17,28 -24,41 7,17 15,34 23,51zm70 -31c17,3 34,7 52,10 13,-16 27,-34 41,-52 -14,-21 -27,-42 -40,-62 -18,0 -36,-1 -52,-1 -11,17 -21,33 -31,49 10,18 20,36 30,56zm-125 -26c10,2 21,4 32,6 7,-13 15,-27 24,-41 -8,-16 -16,-32 -24,-47 -11,0 -21,0 -31,-1 -7,14 -13,27 -19,39 6,14 12,29 18,44z"/>
  <path class="fil2 str2" d="M18 227c9,0 16,-3 22,-7 6,-5 10,-11 12,-20 2,-8 3,-22 3,-42 0,-20 0,-33 1,-39 1,-10 3,-18 6,-25 2,-6 6,-10 10,-14 5,-4 10,-7 17,-8 4,-2 11,-2 22,-2l10 0 0 28 -6 0c-12,0 -20,2 -24,7 -4,4 -6,14 -6,30 0,31 -1,51 -2,59 -2,13 -6,23 -11,30 -5,6 -14,13 -25,18 13,5 23,14 29,25 6,11 9,30 9,55 0,24 0,37 0,42 1,8 4,14 7,17 4,3 12,5 23,5l6 0 0 28 -10 0c-12,0 -20,-1 -26,-3 -7,-3 -14,-7 -19,-13 -5,-6 -8,-14 -9,-24 -2,-9 -3,-24 -3,-46 0,-21 -1,-36 -3,-44 -2,-9 -5,-15 -11,-20 -6,-5 -13,-7 -22,-7l0 -30z"/>
  <path class="fil2 str2" d="M479 257c-9,0 -16,3 -22,7 -5,5 -9,12 -11,20 -2,8 -3,22 -3,42 0,20 0,33 -1,39 -1,10 -3,18 -6,24 -2,6 -6,11 -10,15 -4,4 -10,6 -16,8 -4,1 -12,2 -21,2l-10 0 0 -28 5 0c12,0 20,-2 24,-7 4,-4 6,-14 6,-30 0,-31 0,-51 2,-59 2,-13 5,-22 10,-29 5,-7 13,-13 24,-19 -13,-5 -22,-13 -28,-25 -5,-11 -8,-29 -8,-55 0,-23 0,-37 -1,-41 -1,-8 -3,-14 -7,-17 -3,-3 -11,-5 -22,-5l-5 0 0 -28 10 0c11,0 19,1 24,3 8,2 14,7 19,13 4,6 8,14 9,23 2,10 2,25 2,46 1,22 2,37 3,45 2,8 6,15 11,19 6,5 13,8 22,8l0 29z"/>
 </g>
</svg>
