<?xml version="1.0" encoding="UTF-8"?>
<!DOCTYPE svg PUBLIC "-//W3C//DTD SVG 1.1//EN" "http://www.w3.org/Graphics/SVG/1.1/DTD/svg11.dtd">
<!-- Creator: CorelDRAW X7 -->
<svg xmlns="http://www.w3.org/2000/svg" xml:space="preserve" width="500px" height="500px" version="1.1" style="shape-rendering:geometricPrecision; text-rendering:geometricPrecision; image-rendering:optimizeQuality; fill-rule:evenodd; clip-rule:evenodd"
viewBox="0 0 500 500"
 xmlns:xlink="http://www.w3.org/1999/xlink">
 <defs>
  <style type="text/css">
   <![CDATA[
    .str2 {stroke:white;stroke-width:9.99988;stroke-linejoin:round}
    .str0 {stroke:#472C2C;stroke-width:29.9996;stroke-linecap:round;stroke-linejoin:round}
    .str1 {stroke:white;stroke-width:7.99975;stroke-linecap:round;stroke-linejoin:round}
    .fil1 {fill:none}
    .fil2 {fill:#472C2C}
    .fil0 {fill:url(#id0)}
   ]]>
  </style>
  <linearGradient id="id0" gradientUnits="userSpaceOnUse" x1="250" y1="-0.863245" x2="250" y2="499.952">
   <stop offset="0" style="stop-opacity:1; stop-color:#B51F1B"/>
   <stop offset="1" style="stop-opacity:1; stop-color:#D52B1E"/>
  </linearGradient>
 </defs>
 <g id="Слой_x0020_1">
  <metadata id="CorelCorpID_0Corel-Layer"/>
  <polygon class="fil0" points="0,-1 500,-1 500,500 0,500 "/>
  <path class="fil1 str0" d="M277 255c16,1 34,1 52,2 13,-20 26,-42 40,-64 -13,-20 -27,-40 -39,-59 -19,3 -36,6 -52,9 -11,20 -21,39 -31,58 10,18 20,36 30,54zm-125 -3c10,0 21,0 32,1 7,-16 15,-32 23,-49 -8,-16 -16,-31 -23,-46 -11,2 -21,3 -32,5 -6,16 -12,31 -19,46 6,14 13,28 19,43zm55 -48c13,-1 26,-2 40,-3 10,-19 20,-38 31,-58 -11,-17 -21,-33 -30,-49 -14,4 -28,7 -40,10 -8,19 -16,37 -24,54 7,15 15,30 23,46zm0 99c12,2 26,3 40,5 9,-17 19,-34 30,-53 -10,-18 -20,-36 -30,-54 -14,1 -27,2 -40,3 -8,17 -16,33 -23,49 7,16 15,33 23,50zm-1 99c13,4 26,8 40,13 10,-15 20,-31 30,-47 -10,-21 -20,-41 -29,-60 -14,-2 -28,-3 -40,-5 -8,15 -16,30 -24,44 8,18 15,36 23,55zm70 -34c17,4 34,8 52,12 13,-18 27,-37 41,-57 -14,-23 -27,-45 -40,-66 -18,-1 -36,-1 -52,-2 -11,19 -21,36 -30,53 9,19 19,39 29,60zm-124 -28c10,2 20,5 31,7 8,-14 16,-29 24,-44 -8,-17 -16,-34 -23,-50 -11,-1 -22,-1 -32,-1 -6,14 -13,28 -19,42 6,15 12,30 19,46z"/>
  <path class="fil1 str1" d="M278 255c16,1 34,2 52,2 13,-20 27,-42 41,-64 -14,-20 -27,-40 -40,-59 -19,3 -36,6 -52,9 -11,20 -21,39 -31,58 10,18 20,36 30,54zm-125 -3c10,0 20,0 31,1 8,-16 16,-32 24,-49 -8,-16 -16,-31 -23,-46 -11,2 -22,3 -32,5 -7,16 -13,31 -19,46 6,14 12,28 19,43zm55 -48c13,-1 26,-2 40,-3 10,-19 20,-38 31,-58 -11,-17 -21,-34 -31,-49 -14,3 -27,7 -40,10 -8,19 -16,36 -23,54 7,15 15,30 23,46zm0 99c12,2 25,3 39,5 10,-17 20,-34 31,-53 -10,-18 -20,-36 -30,-54 -14,1 -27,2 -40,3 -8,17 -16,33 -24,49 8,16 16,33 24,50zm-1 99c13,4 26,8 40,13 10,-15 20,-31 30,-47 -10,-21 -20,-41 -30,-60 -14,-2 -27,-3 -39,-5 -9,15 -17,30 -24,44 7,18 15,36 23,55zm70 -34c17,4 34,8 52,12 13,-18 27,-37 41,-56 -14,-23 -27,-46 -40,-67 -18,0 -36,-1 -52,-2 -11,19 -21,36 -31,53 10,19 20,39 30,60zm-125 -28c10,3 21,5 32,7 7,-14 15,-29 24,-44 -8,-17 -16,-34 -24,-50 -11,-1 -21,-1 -31,-1 -7,14 -13,28 -19,42 6,15 12,30 18,46z"/>
  <path class="fil2 str2" d="M18 229c12,0 22,-3 29,-8 8,-5 13,-12 16,-21 2,-9 4,-24 4,-45 0,-22 0,-36 1,-43 1,-10 4,-19 8,-26 4,-6 8,-11 14,-15 6,-4 13,-7 22,-9 6,-2 15,-2 29,-2l13 0 0 30 -7 0c-16,0 -27,3 -33,7 -5,5 -7,16 -7,33 0,33 -1,54 -3,63 -3,14 -8,25 -15,32 -7,8 -17,14 -32,20 17,6 30,15 38,27 8,12 12,32 12,59 0,25 0,40 0,45 1,9 5,15 10,18 5,4 15,6 30,6l7 0 0 30 -13 0c-16,0 -27,-1 -34,-3 -10,-3 -18,-8 -25,-14 -6,-7 -11,-15 -13,-26 -2,-10 -3,-26 -3,-49 0,-23 -1,-39 -4,-48 -2,-9 -7,-16 -15,-21 -8,-5 -17,-8 -29,-8l0 -32z"/>
  <path class="fil2 str2" d="M479 261c-11,0 -19,3 -26,8 -7,5 -11,12 -14,21 -2,9 -3,24 -3,45 0,22 -1,36 -1,43 -1,10 -4,19 -7,26 -3,6 -8,11 -13,15 -5,4 -11,7 -19,9 -5,1 -13,2 -25,2l-12 0 0 -30 6 0c15,0 24,-3 29,-8 4,-4 7,-15 7,-32 0,-33 1,-54 2,-63 3,-14 7,-24 13,-32 6,-7 16,-14 29,-20 -16,-6 -27,-15 -34,-27 -7,-12 -10,-31 -10,-59 0,-25 0,-40 -1,-44 -1,-9 -4,-15 -8,-19 -5,-3 -13,-5 -27,-5l-6 0 0 -30 12 0c13,0 23,1 29,3 9,3 16,8 22,14 6,7 10,15 11,25 2,10 3,27 3,50 0,23 2,39 4,48 2,9 6,16 13,21 7,5 16,7 26,8l0 31z"/>
 </g>
</svg>
